<svg width="102" height="18" viewBox="0 0 102 18" fill="none" xmlns="http://www.w3.org/2000/svg">
<path d="M18.8258 4.62966C17.6498 4.6783 17.6754 4.67433 17.5425 4.68432L18.239 2.89949C18.239 2.89949 16.0649 3.61713 15.5138 3.74551C14.0663 2.57811 11.9148 2.52653 10.3766 3.37485C9.11701 4.06971 8.44092 5.26296 8.66643 6.65767C6.21495 6.35242 4.14944 5.30968 2.51868 3.55186L2.00291 2.996L1.61751 3.63108C1.13041 4.43358 0.968662 5.35115 1.16193 6.2147C1.24124 6.56897 1.37603 6.90687 1.56274 7.22326L1.12028 7.06942L1.06779 7.73279C1.01459 8.40666 1.26463 9.19329 1.73676 9.83682C1.86969 10.0181 2.04085 10.2171 2.2578 10.4134L2.02916 10.3819L2.30815 11.1421C2.67487 12.1408 3.43654 12.9135 4.42501 13.343C3.43783 13.7189 2.64035 13.9588 1.32953 14.3457L0.130249 14.6994L1.23796 15.2429C1.6603 15.4501 3.1527 16.1421 4.62727 16.3497C7.90504 16.811 11.5955 16.4354 14.0799 14.4276C16.1725 12.7364 16.8591 10.3309 16.7165 7.8275C16.695 7.44852 16.8106 7.08682 17.0423 6.80921C17.5063 6.25335 18.8229 4.63338 18.8258 4.62966ZM16.1664 6.22046C15.7817 6.68135 15.589 7.26998 15.6235 7.87768C15.7674 10.4028 15.0017 12.361 13.3476 13.6978C11.4153 15.2594 8.29857 15.8723 4.79686 15.3794C4.1627 15.2902 3.50729 15.0904 2.96485 14.8909C4.06386 14.5516 4.91254 14.2492 6.28313 13.6671L8.19644 12.8545L6.08401 12.7331C5.07215 12.675 4.2296 12.235 3.71169 11.5205C3.98669 11.5062 4.25185 11.4663 4.51587 11.4002L6.5306 10.8967L4.49904 10.4503C3.51186 10.2333 2.94916 9.70333 2.65091 9.29683C2.45507 9.02972 2.32712 8.75607 2.25039 8.5038C2.45407 8.55282 2.69156 8.58777 3.07454 8.62181L4.9549 8.78871L3.46507 7.74585C2.3916 6.99454 1.96141 5.8658 2.27677 4.78069C5.627 7.89879 9.56061 7.66444 9.95657 7.74687C9.86942 6.98725 9.86713 6.98546 9.84431 6.91314C9.33724 5.30469 10.4485 4.48798 10.9497 4.21152C11.9967 3.63416 13.6585 3.54712 14.8096 4.49835C15.0582 4.70364 15.3944 4.78441 15.7091 4.71427C15.9915 4.6513 16.2233 4.58461 16.4502 4.51204L15.9778 5.72257L16.5809 5.72296C16.467 5.85991 16.3305 6.02386 16.1664 6.22046Z" fill="black"/>
<path d="M43.9991 17.8944H57.2175C58.7276 17.8944 59.9561 16.792 59.9561 15.4369V3.57582C59.9561 2.22079 58.7276 1.11841 57.2175 1.11841H43.9991C42.4891 1.11841 41.2605 2.22079 41.2605 3.57582V15.4369C41.2605 16.792 42.4891 17.8944 43.9991 17.8944ZM42.356 3.57582C42.356 2.76283 43.0931 2.10137 43.9991 2.10137H57.2175C58.1235 2.10137 58.8606 2.76283 58.8606 3.57582V15.4369C58.8606 16.2499 58.1235 16.9114 57.2175 16.9114H43.9991C43.0931 16.9114 42.356 16.2499 42.356 15.4369V3.57582Z" fill="black"/>
<path d="M50.6083 13.9297C53.3264 13.9297 55.5378 11.9453 55.5378 9.50636C55.5378 7.06737 53.3264 5.08301 50.6083 5.08301C47.8902 5.08301 45.6788 7.06737 45.6788 9.50636C45.6788 11.9453 47.8902 13.9297 50.6083 13.9297ZM50.6083 6.06597C52.7224 6.06597 54.4423 7.60928 54.4423 9.50636C54.4423 11.4034 52.7224 12.9467 50.6083 12.9467C48.4941 12.9467 46.7742 11.4034 46.7742 9.50636C46.7742 7.60928 48.4941 6.06597 50.6083 6.06597Z" fill="black"/>
<path d="M55.7743 5.82742C56.6695 5.82742 57.3979 5.17386 57.3979 4.37056C57.3979 3.56726 56.6695 2.9137 55.7743 2.9137C54.8791 2.9137 54.1507 3.56726 54.1507 4.37056C54.1507 5.17386 54.8791 5.82742 55.7743 5.82742ZM55.7743 3.88494C56.0726 3.88494 56.3155 4.10284 56.3155 4.37056C56.3155 4.63828 56.0726 4.85618 55.7743 4.85618C55.4759 4.85618 55.2331 4.63828 55.2331 4.37056C55.2331 4.10284 55.4759 3.88494 55.7743 3.88494Z" fill="black"/>
<path d="M85.1294 17.4536H91.2273V11.4902H89.0364V9.52431H91.2273V7.06689C91.2273 5.71186 92.4558 4.60948 93.9659 4.60948H96.7045V6.57541H94.5136C93.9096 6.57541 93.4182 7.01634 93.4182 7.55838V9.52431H96.6057L96.2405 11.4902H93.4182V17.4536H98.3477C99.8578 17.4536 101.086 16.3512 101.086 14.9962V3.13503C101.086 1.77999 99.8578 0.677612 98.3477 0.677612H85.1294C83.6193 0.677612 82.3907 1.77999 82.3907 3.13503V14.9962C82.3907 16.3512 83.6193 17.4536 85.1294 17.4536ZM83.4862 3.13503C83.4862 2.32203 84.2233 1.66058 85.1294 1.66058H98.3477C99.2537 1.66058 99.9909 2.32203 99.9909 3.13503V14.9962C99.9909 15.8092 99.2537 16.4706 98.3477 16.4706H94.5136V12.4732H97.1685L97.8988 8.54134H94.5136V7.55838H97.8V3.62651H93.9659C91.8518 3.62651 90.1319 5.16982 90.1319 7.06689V8.54134H87.941V12.4732H90.1319V16.4706H85.1294C84.2233 16.4706 83.4862 15.8092 83.4862 14.9962V3.13503Z" fill="black"/>
</svg>
